<svg xmlns="http://www.w3.org/2000/svg" viewBox="0 0 310.46 166.35"><defs><style>.cls-1{fill:#cb2036;}.cls-2{fill:#ffffff;}</style></defs><title>hed1</title><g id="Layer_2" data-name="Layer 2"><g id="Layer_1-2" data-name="Layer 1"><rect class="cls-1" width="310.46" height="166.35" rx="20.56"/><path class="cls-2" d="M79.94,63.17l-8.81,1a3.05,3.05,0,0,1-3.28-3V32.64a3.35,3.35,0,0,0-3.33-3.33h-1.7a3.55,3.55,0,0,0-3.46,3.33l-.13,2.14c-.06,1.83.31,3.34.88,3.28s.82,1.51.63,3.33L57.66,70.1a2.94,2.94,0,0,0,3,3.34H79.94a3.36,3.36,0,0,0,3.34-3.34S84,62.8,79.94,63.17Z"/><path class="cls-2" d="M113.37,34.34V32.45A3.07,3.07,0,0,0,110,29.37L90.58,30.94a3.72,3.72,0,0,0-3.34,3.59v1.32c0,1.83.38,3.34.88,3.34s.7,1.45.51,3.27L85.92,70.1a3,3,0,0,0,3,3.34h22.92A3.17,3.17,0,0,0,115,70.1L113.5,41C113.43,39.19,113.37,36.17,113.37,34.34Zm-8.25,26.38a3.72,3.72,0,0,1-3.33,3.59L99,64.5a2.94,2.94,0,0,1-3.27-3v-19A3.29,3.29,0,0,1,99,39.19h2.84a3.3,3.3,0,0,1,3.33,3.27Z"/><path class="cls-2" d="M144.28,54.49a3.46,3.46,0,0,0-3.65-3l-1.39.12c-1.76.13-4.28.25-5.47.32s-2.08.44-1.89.94S133,54.17,134,54.74,136,57.26,136,59.08v1.7a3.72,3.72,0,0,1-3.27,3.59l-2,.13a3,3,0,0,1-3.34-3V42.34a3.31,3.31,0,0,1,3.34-3.28h11.08a3.36,3.36,0,0,0,3.34-3.33V32.26a3,3,0,0,0-3.34-3l-19.51,1.58A3.61,3.61,0,0,0,119,34.4v1.33c0,1.82.38,3.33.82,3.33s.69,1.45.5,3.28L117.65,70.1a3,3,0,0,0,3,3.34h21.15a10.26,10.26,0,0,0,3.78-.44c.31-.26.38-1.89.19-3.72Z"/><path class="cls-2" d="M175.88,34.34V32.45a3.07,3.07,0,0,0-3.33-3.08l-19.46,1.57a3.72,3.72,0,0,0-3.33,3.59v1.32c0,1.83.37,3.34.88,3.34s.69,1.45.5,3.27L148.43,70.1a3,3,0,0,0,3,3.34h22.91a3.16,3.16,0,0,0,3.15-3.34L176,41C176,39.19,175.88,36.17,175.88,34.34Zm-8.24,26.38a3.73,3.73,0,0,1-3.34,3.59l-2.83.19a3,3,0,0,1-3.28-3v-19a3.29,3.29,0,0,1,3.28-3.27h2.83a3.31,3.31,0,0,1,3.34,3.27Z"/><path class="cls-2" d="M204,43l-11,.88c-1.83.12-3.34-.88-3.34-2.27s1.51-2.52,3.4-2.52h10.51a3.36,3.36,0,0,0,3.34-3.33v-3.4a3,3,0,0,0-3.34-3L185.2,30.88c-1.83.19-3.34.31-3.4.31l-.57,4.54c-.19,1.82,0,3.33.51,3.33s.69,1.51.5,3.34l-.69,7a3,3,0,0,0,3,3.33h11a3,3,0,0,1,3,3.34l-.44,4.6a4.29,4.29,0,0,1-3.65,3.65l-1.51.06c-1.83.19-3.34-.88-3.34-2.39s-1.45-2.65-3.34-2.65h-1.26a4.1,4.1,0,0,0-3.84,3.34L180.16,70A2.8,2.8,0,0,0,183,73.31h21a3.37,3.37,0,0,0,3.34-3.4V46.05A3,3,0,0,0,204,43Z"/><path class="cls-2" d="M252.81,48.38l-1.76-5.29c-.13-.44-1-.5-1.89-.25l-2.9.94.7-12.21a2.12,2.12,0,0,0-2.21-2.2l-16.05,1.7c-1.26,0-2.27,2.2-2.2,3.46l1,15.8a2.83,2.83,0,0,0,.44,1.26c-1.26.13-2.26,3.59-2.33,4.85,0,0,1.14,10.13,2,13.41a4.7,4.7,0,0,0,4.91,3.71l10.45-.38a2.26,2.26,0,0,0,2.26-2.32l-.63-10.77a9.48,9.48,0,0,0,1,.69l.5.38c.82.5,1.7.63,2,.32l3.21-3.34c.31-.32-.06-1-.82-1.45l-.82-.57c-.82-.5-2-1.26-2.77-1.76l-2.77-1.89a2.79,2.79,0,0,0-.37-1l7.55-1.89C252.31,49.32,252.94,48.76,252.81,48.38ZM239.4,64.75a2.45,2.45,0,0,1-2.33,2.33l-.82.19a2.23,2.23,0,0,1-2.45-2l-1-5.92a2.23,2.23,0,0,1,2.33-2.2h1.89a2.26,2.26,0,0,1,2.33,2.2ZM239,43.85l-1.7.25a2.06,2.06,0,0,1-2.39-1.64l-.63-4.59a2.15,2.15,0,0,1,1.83-2.27l1.76-.38a2,2,0,0,1,2.39,1.45l.63,5A2,2,0,0,1,239,43.85Z"/><path class="cls-2" d="M68.83,127.49l-1.2.06a3,3,0,0,1-3.34-3.09V105.89a3.13,3.13,0,0,1,2.9-3.33,3.2,3.2,0,0,0,2.9-3.4V96a3,3,0,0,0-3.34-3l-13,1.38A3.79,3.79,0,0,0,50.38,98v1.14a3.19,3.19,0,0,0,2.9,3.4,2.84,2.84,0,0,1,2.64,3.27L55,125.28a4,4,0,0,1-3.53,3.59l-1.63.13a3.67,3.67,0,0,0-3.34,3.59v1.19a3.36,3.36,0,0,0,3.34,3.34h19a3.36,3.36,0,0,0,3.33-3.34v-3.27A3,3,0,0,0,68.83,127.49Z"/><path class="cls-2" d="M97,126.79l-8.81.95a3.05,3.05,0,0,1-3.28-3V96.26a3.36,3.36,0,0,0-3.33-3.34h-1.7a3.56,3.56,0,0,0-3.47,3.34l-.12,2.14c-.06,1.83.31,3.34.88,3.27s.82,1.52.63,3.34l-3.09,28.71a3,3,0,0,0,3,3.34H97a3.37,3.37,0,0,0,3.34-3.34S101.06,126.42,97,126.79Z"/><path class="cls-2" d="M125.3,126.79l-8.82.95a3,3,0,0,1-3.27-3V96.26a3.36,3.36,0,0,0-3.34-3.34h-1.7a3.56,3.56,0,0,0-3.46,3.34l-.13,2.14c-.06,1.83.32,3.34.89,3.27s.81,1.52.62,3.34L103,133.72a3,3,0,0,0,3,3.34H125.3a3.36,3.36,0,0,0,3.33-3.34S129.33,126.42,125.3,126.79Z"/><path class="cls-2" d="M156.46,93h-1.7a3.25,3.25,0,0,0-3.28,3.27V123.9a3.68,3.68,0,0,1-3.33,3.59l-3.28.25a3,3,0,0,1-3.33-3V96.26A3.3,3.3,0,0,0,138.2,93h-1.7A3.45,3.45,0,0,0,133,96.26L133,98c-.13,1.83.25,3,.62,3.34.57.37.63,1.51.51,3.27l-2.83,29.15a3,3,0,0,0,3,3.34h24.36a3.18,3.18,0,0,0,3.21-3.34L160,96.26A3.55,3.55,0,0,0,156.46,93Z"/><path class="cls-2" d="M188.38,106.58l-11,.89c-1.83.12-3.34-.89-3.34-2.27s1.51-2.52,3.4-2.52h10.51a3.36,3.36,0,0,0,3.34-3.34V96a3,3,0,0,0-3.34-3L169.55,94.5c-1.82.19-3.34.31-3.4.31l-.56,4.53c-.19,1.83,0,3.34.5,3.34s.69,1.51.5,3.34l-.69,7a3,3,0,0,0,3,3.33h11a3,3,0,0,1,3,3.34l-.44,4.6a4.29,4.29,0,0,1-3.65,3.65l-1.51.06c-1.83.19-3.34-.88-3.34-2.39s-1.45-2.65-3.34-2.65h-1.25a4.08,4.08,0,0,0-3.84,3.34l-1.07,7.3a2.79,2.79,0,0,0,2.83,3.34h21a3.37,3.37,0,0,0,3.33-3.4V109.67A3,3,0,0,0,188.38,106.58Z"/><path class="cls-2" d="M217,93.05l-19.45,1.57a3.68,3.68,0,0,0-3.34,3.59v1.26a3.36,3.36,0,0,0,3.34,3.34h3.08a3.13,3.13,0,0,1,3.15,3.33l-1.39,27.64a3.16,3.16,0,0,0,3.15,3.34H209a3.31,3.31,0,0,0,3.28-3.34V106.14a3.35,3.35,0,0,1,3.33-3.33H217a3.37,3.37,0,0,0,3.34-3.34v-3.4A3,3,0,0,0,217,93.05Z"/><path class="cls-2" d="M250.76,100.6c-.13-1.76-.25-4.34-.25-5.66s-1.51-2.27-3.34-2.08l-19.64,1.57A3.62,3.62,0,0,0,224.26,98v1.32c0,1.83.37,3.34.82,3.34s.69,1.45.5,3.28l-2.65,27.7a3,3,0,0,0,3,3.33h3.53a3.3,3.3,0,0,0,3.27-3.33V122a3,3,0,1,1,5.92,0v11.65A3.36,3.36,0,0,0,242,137h3.52a3.05,3.05,0,0,0,3-3.33L247.55,122c-.19-1.83.82-3.27,2.2-3.27s2.4-1.52,2.27-3.34Zm-11.9,8.94-2.83.26a3.08,3.08,0,0,1-3.34-3.09V106a3.35,3.35,0,0,1,3.34-3.28h2.83A3.35,3.35,0,0,1,242.2,106,3.67,3.67,0,0,1,238.86,109.54Z"/><path class="cls-2" d="M263.54,130.19a10.54,10.54,0,0,1-.06-1.38v-.44c0-.38-.51-.63-1.07-.63l-6.3.31c-.57.07-1.07.38-1.07.76v.31c0,.38-.38,7.12-.38,7.12-.06.37.38.69,1,.69H263c.57,0,1.07-.32,1-.69Z"/></g></g></svg>
