<svg xmlns="http://www.w3.org/2000/svg" viewBox="0 0 310.46 166.35"><defs><style>.cls-1{fill:#cb2036;}.cls-2{fill:#fefefe;}</style></defs><title>hed2</title><g id="Layer_2" data-name="Layer 2"><g id="Layer_1-2" data-name="Layer 1"><rect class="cls-1" width="310.46" height="166.35" rx="20.56"/><path class="cls-2" d="M62.35,29.91a7.37,7.37,0,0,0-3.87,4.31L51.23,60.71c-.5,1.81-.93,1.75-1-.12l-.75-28.37a2.45,2.45,0,0,0-3.32-2.37s-3.87.81-4.12,4.5L39,59c-.19,1.82-.56,1.82-.75,0l-2.87-26.8c-.19-1.87-1.56-2.87-3.06-2.31a5.45,5.45,0,0,0-2.81,4.44l-.07,1.37c-.12,1.88.19,3.38.63,3.38s.75,1.43.75,3.31l-.07,27.67a3.4,3.4,0,0,0,3.38,3.37h4.43a4.19,4.19,0,0,0,3.94-3.31l1-5.62c.31-1.81.81-1.81,1,.06l.75,5.5a3.94,3.94,0,0,0,3.81,3.37h6.43a4,4,0,0,0,3.88-3.37l5.43-37.86C65,30.35,64,29.35,62.35,29.91Z"/><path class="cls-2" d="M91.27,29.85,72,31.41a3.54,3.54,0,0,0-3.25,3.5v1.31c0,1.81.38,3.31.81,3.31s.69,1.44.5,3.25L67.41,70.21a2.9,2.9,0,0,0,2.94,3.24H91.27a3.28,3.28,0,0,0,3.25-3.31V66.77a3,3,0,0,0-3.25-3.06l-11,.94a3,3,0,0,1-3.25-3v-.81a3.26,3.26,0,0,1,3.25-3.25h6.25a4.07,4.07,0,0,0,3.81-3.25l.56-3.5a2.46,2.46,0,0,0-2.75-2.94l-7.87.82A3,3,0,0,1,77,45.78v-3a3.27,3.27,0,0,1,3.25-3.25h11a3.28,3.28,0,0,0,3.25-3.31V32.85A2.92,2.92,0,0,0,91.27,29.85Z"/><path class="cls-2" d="M122.07,53.84l-.56-.19c-1.75-.62-1.81-1.87-.19-2.75l.62-.37a5.61,5.61,0,0,0,2.75-4.87l-.18-4.5c-.13-1.88-.19-4.81-.19-6.69V32.66a3,3,0,0,0-3.31-3L101.7,31.22a3.61,3.61,0,0,0-3.31,3.57V36c0,1.82.38,3.32.81,3.32s.69,1.5.51,3.31L97.08,70.14a2.94,2.94,0,0,0,3,3.31h22.68a3.15,3.15,0,0,0,3.18-3.31l-.62-11.87A5.38,5.38,0,0,0,122.07,53.84Zm-9.25,10.49-2.81.25a3,3,0,0,1-3.25-3.06v-.68a3.31,3.31,0,0,1,3.31-3.38h2.69a3.34,3.34,0,0,1,3.37,3.31A3.64,3.64,0,0,1,112.82,64.33Zm3.31-19.49a3.64,3.64,0,0,1-3.31,3.56l-2.81.25a3,3,0,0,1-3.25-3.06V42.66a3.29,3.29,0,0,1,3.31-3.31h2.69a3.34,3.34,0,0,1,3.37,3.31Z"/><path class="cls-2" d="M169.35,43.34c-.12-.43-.93-.5-1.87-.25l-2.87.94.68-12.12a2.08,2.08,0,0,0-2.18-2.18l-15.93,1.68c-1.25,0-2.25,2.19-2.19,3.44l1,15.68a2.71,2.71,0,0,0,.44,1.25c-1.25.12-2.25,3.56-2.31,4.81,0,0,1.12,10,1.93,13.3a4.69,4.69,0,0,0,4.88,3.69l10.37-.38a2.24,2.24,0,0,0,2.24-2.31l-.62-10.68a8.3,8.3,0,0,0,1,.69l.5.37c.81.5,1.69.63,2,.31l3.18-3.31c.32-.31-.06-1-.81-1.43l-.81-.57c-.81-.49-2-1.24-2.75-1.74l-2.75-1.88a2.68,2.68,0,0,0-.37-1l7.49-1.87c1-.25,1.63-.81,1.5-1.19ZM157.8,64.83a2.43,2.43,0,0,1-2.31,2.31l-.82.19a2.21,2.21,0,0,1-2.43-2l-.94-5.87a2.21,2.21,0,0,1,2.31-2.19h1.88a2.24,2.24,0,0,1,2.31,2.19Zm-.38-20.74-1.68.25a2,2,0,0,1-2.38-1.62l-.62-4.56a2.14,2.14,0,0,1,1.81-2.25l1.75-.37A2,2,0,0,1,158.67,37l.63,5A2,2,0,0,1,157.42,44.09Z"/><path class="cls-2" d="M216.64,41.22c-.06-1.81-.12-4.81-.12-6.62V32.72a3,3,0,0,0-3.31-3L193.9,31.29a3.59,3.59,0,0,0-3.25,3.56V36.1c0,1.81-.43,3.37,1,3.31.44,0,.5,1.5.32,3.31l-2.63,27.36a2.93,2.93,0,0,0,2.94,3.31h3.37A3.33,3.33,0,0,0,199,70.08V60.77a3.33,3.33,0,0,1,3.31-3.31H205a3.33,3.33,0,0,1,3.31,3.31v9.31a3.28,3.28,0,0,0,3.25,3.31H215a3.1,3.1,0,0,0,3.13-3.31Zm-8.31,3.69A3.7,3.7,0,0,1,205,48.47l-2.75.18a3,3,0,0,1-3.31-3V42.72a3.33,3.33,0,0,1,3.31-3.31H205a3.33,3.33,0,0,1,3.31,3.31Z"/><path class="cls-2" d="M248.37,37.47c-.18-1.81-.31-4.31-.31-5.62s-1.5-2.25-3.31-2.06l-19.37,1.56a3.6,3.6,0,0,0-3.31,3.56v1.31c0,1.81.32,3.31.82,3.31s.68,1.5.5,3.31L220.7,70.27a3,3,0,0,0,3.06,3.31h3.37a3.35,3.35,0,0,0,3.31-3.37V58.77a3.33,3.33,0,0,1,3.31-3.31h12.81a3,3,0,0,0,3-3.31ZM236.5,46.34l-2.75.25a3.05,3.05,0,0,1-3.31-3.06v-.69a3.33,3.33,0,0,1,3.31-3.31h2.75a3.32,3.32,0,0,1,3.31,3.25A3.64,3.64,0,0,1,236.5,46.34Z"/><path class="cls-2" d="M279.86,37.47c-.19-1.81-.32-4.31-.32-5.62s-1.5-2.25-3.31-2.06l-19.36,1.56a3.59,3.59,0,0,0-3.31,3.56v1.31c0,1.81.31,3.31.81,3.31s.69,1.5.5,3.31l-2.69,27.43a3,3,0,0,0,3.06,3.31h3.38a3.35,3.35,0,0,0,3.31-3.37V58.77a3.33,3.33,0,0,1,3.31-3.31H278a3,3,0,0,0,3-3.31ZM268,46.34l-2.75.25a3.05,3.05,0,0,1-3.31-3.06v-.69a3.33,3.33,0,0,1,3.31-3.31H268a3.32,3.32,0,0,1,3.31,3.25A3.65,3.65,0,0,1,268,46.34Z"/><path class="cls-2" d="M92.93,95.85a3.35,3.35,0,0,0-3.56-3.06l-19.3,1.56a3.59,3.59,0,0,0-3.32,3.44c0,1.75.38,3.18.88,3.18s.75,1.5.56,3.31l-2.75,29a3,3,0,0,0,3,3.31H89.37A3.76,3.76,0,0,0,93,133.27L94.18,119a45.72,45.72,0,0,0,.06-6.62Zm-7.25,22.68-.56,4.56A4.08,4.08,0,0,1,82,126.34l-2.38.37a2.31,2.31,0,0,1-2.75-2.37l.38-17.87c0-1.56.87-2.75,2.37-2.62l2.31.12a3.53,3.53,0,0,1,3.13,2.94l.69,6.06A27.87,27.87,0,0,1,85.68,118.53Z"/><path class="cls-2" d="M120.79,93l-19.3,1.56a3.53,3.53,0,0,0-3.25,3.5v1.31c0,1.81.37,3.31.81,3.31s.69,1.44.5,3.25l-2.62,27.42a2.9,2.9,0,0,0,2.93,3.25h20.93a3.28,3.28,0,0,0,3.25-3.31V130a3,3,0,0,0-3.25-3.06l-11,.94a3,3,0,0,1-3.24-3V124a3.25,3.25,0,0,1,3.24-3.24H116a4.06,4.06,0,0,0,3.81-3.25l.56-3.5a2.46,2.46,0,0,0-2.75-2.94l-7.87.82a2.94,2.94,0,0,1-3.24-2.94v-3a3.26,3.26,0,0,1,3.24-3.25h11A3.28,3.28,0,0,0,124,99.41V96A2.92,2.92,0,0,0,120.79,93Z"/><path class="cls-2" d="M150.27,106.41l-10.93.87c-1.81.13-3.31-.87-3.31-2.25s1.5-2.49,3.37-2.49h10.43a3.33,3.33,0,0,0,3.31-3.32V95.85a3,3,0,0,0-3.31-3l-18.24,1.56c-1.81.19-3.31.32-3.37.32l-.56,4.49c-.19,1.82,0,3.32.5,3.32s.68,1.49.5,3.31l-.69,6.93a3,3,0,0,0,3,3.31H141.9a2.94,2.94,0,0,1,3,3.31l-.44,4.56a4.25,4.25,0,0,1-3.62,3.63l-1.5.06c-1.81.19-3.31-.88-3.31-2.38s-1.44-2.62-3.31-2.62h-1.25a4.05,4.05,0,0,0-3.81,3.31l-1.06,7.25a2.77,2.77,0,0,0,2.81,3.31h20.86a3.35,3.35,0,0,0,3.31-3.37V109.47A3,3,0,0,0,150.27,106.41Z"/><path class="cls-2" d="M178.26,127.15l-1.19.06a3,3,0,0,1-3.31-3.06V105.72a3.1,3.1,0,0,1,2.87-3.31A3.16,3.16,0,0,0,179.5,99V95.85a2.92,2.92,0,0,0-3.31-2.93l-12.93,1.37A3.76,3.76,0,0,0,160,97.91V99a3.16,3.16,0,0,0,2.88,3.37,2.83,2.83,0,0,1,2.62,3.25l-.94,19.3a3.92,3.92,0,0,1-3.5,3.56l-1.62.13a3.65,3.65,0,0,0-3.31,3.56v1.18a3.34,3.34,0,0,0,3.31,3.32h18.87a3.34,3.34,0,0,0,3.31-3.32v-3.24A3,3,0,0,0,178.26,127.15Z"/><path class="cls-2" d="M210.55,117.84a3.44,3.44,0,0,0-3.62-3l-1.38.13c-1.75.12-4.25.25-5.43.31s-2.06.44-1.88.94,1.13,1.31,2.13,1.87,1.93,2.5,1.93,4.31v1.69a3.69,3.69,0,0,1-3.24,3.56l-2,.12a3,3,0,0,1-3.31-3v-19a3.27,3.27,0,0,1,3.31-3.24h11a3.34,3.34,0,0,0,3.31-3.32V95.79a3,3,0,0,0-3.31-3l-19.36,1.56a3.59,3.59,0,0,0-3.25,3.56v1.31c0,1.82.37,3.32.81,3.32s.69,1.43.5,3.24l-2.62,27.55a2.92,2.92,0,0,0,2.93,3.31h21a10.22,10.22,0,0,0,3.75-.43c.31-.25.37-1.88.19-3.69Z"/><path class="cls-2" d="M242.09,96a3.18,3.18,0,0,0-3.49-3l-1.44.12a3.29,3.29,0,0,0-3.06,3.5l1.5,25.49c.06,1.81-.19,1.87-.69.12l-6.75-26A3.76,3.76,0,0,0,224,93.54l-4.37.69A4.32,4.32,0,0,0,216.23,98v.5c-.12,1.81.19,3.31.69,3.37s.75,1.5.56,3.31l-2.81,28.17a2.87,2.87,0,0,0,2.94,3.25h3.62a3.22,3.22,0,0,0,3.25-3.25l-.25-22.86c-.06-1.81.31-1.81.75-.06l6,23a4.31,4.31,0,0,0,4.06,3.18l6.93-.06a3.05,3.05,0,0,0,3.06-3.31Z"/></g></g></svg>