<svg xmlns="http://www.w3.org/2000/svg" viewBox="0 0 310.46 166.35"><defs><style>.cls-1{fill:#cb2036;}.cls-2{fill:#fefefe;}</style></defs><title>hed3</title><g id="Layer_2" data-name="Layer 2"><g id="Layer_1-2" data-name="Layer 1"><rect class="cls-1" width="310.46" height="166.35" rx="20.56"/><path class="cls-2" d="M103.82,29.53,84.36,31.1a3.57,3.57,0,0,0-3.27,3.53V36c0,1.82.38,3.33.82,3.33s.69,1.45.5,3.28L79.77,70.2a2.92,2.92,0,0,0,3,3.27h21.09a3.31,3.31,0,0,0,3.27-3.34v-3.4a3,3,0,0,0-3.27-3.08l-11.08.94a3.05,3.05,0,0,1-3.28-3v-.82a3.3,3.3,0,0,1,3.28-3.27H99a4.08,4.08,0,0,0,3.84-3.27l.57-3.53a2.48,2.48,0,0,0-2.77-3l-7.93.82a3,3,0,0,1-3.28-3v-3a3.3,3.3,0,0,1,3.28-3.28h11.08A3.3,3.3,0,0,0,107.09,36v-3.4A2.94,2.94,0,0,0,103.82,29.53Z"/><path class="cls-2" d="M137,32.74a3.9,3.9,0,0,0-3.77-3.28h-4a4.11,4.11,0,0,0-3.91,3.21l-1.19,6.55c-.32,1.83-1,1.83-1.45.06l-1.57-6.16a4,4,0,0,0-4.16-2.77l-1.45.18a4.08,4.08,0,0,0-3.52,3.66l-.13,1.32c-.12,1.82.13,3.27.57,3.27s.63,1.51.44,3.27l-3.15,28.08a3,3,0,0,0,3,3.34h4.47a3.16,3.16,0,0,0,3.15-3.34L119.37,46c-.07-1.82.19-1.82.56-.06l2.4,11.39a3.89,3.89,0,0,0,3.33,3.21c1.45,0,2.77-1.44,3-3.27l1.26-12.21c.19-1.77.5-1.77.69,0l3,25.12a3.9,3.9,0,0,0,3.72,3.27h2.51a2.81,2.81,0,0,0,2.84-3.27Z"/><path class="cls-2" d="M172.75,41c-.06-1.82-.13-4.84-.13-6.67V32.42a3,3,0,0,0-3.33-3L149.84,31a3.63,3.63,0,0,0-3.28,3.59v1.26c0,1.83-.44,3.4,1,3.34.44,0,.5,1.51.31,3.34l-2.64,27.57a3,3,0,0,0,3,3.34h3.4a3.36,3.36,0,0,0,3.33-3.34V60.69a3.37,3.37,0,0,1,3.34-3.34H161a3.36,3.36,0,0,1,3.34,3.34v9.38a3.31,3.31,0,0,0,3.27,3.34h3.4a3.13,3.13,0,0,0,3.15-3.34Zm-8.37,3.72A3.73,3.73,0,0,1,161,48.29l-2.77.19a3,3,0,0,1-3.34-3v-3a3.37,3.37,0,0,1,3.34-3.34H161a3.36,3.36,0,0,1,3.34,3.34Z"/><path class="cls-2" d="M199.13,63.9l-1.2.06a3,3,0,0,1-3.33-3.08V42.31A3.13,3.13,0,0,1,197.49,39a3.19,3.19,0,0,0,2.9-3.4V32.36a3,3,0,0,0-3.34-3l-13,1.39a3.77,3.77,0,0,0-3.34,3.65v1.13a3.19,3.19,0,0,0,2.9,3.4,2.84,2.84,0,0,1,2.64,3.27l-.94,19.46a4,4,0,0,1-3.53,3.59l-1.63.12A3.68,3.68,0,0,0,176.78,69v1.2a3.36,3.36,0,0,0,3.34,3.33h19a3.36,3.36,0,0,0,3.34-3.33V66.92A3,3,0,0,0,199.13,63.9Z"/><path class="cls-2" d="M227.33,63.21l-8.81.94a3,3,0,0,1-3.28-3V32.67a3.35,3.35,0,0,0-3.33-3.33h-1.7a3.56,3.56,0,0,0-3.47,3.33l-.12,2.15c-.06,1.82.31,3.33.88,3.27s.82,1.51.63,3.34l-3.08,28.7A2.94,2.94,0,0,0,208,73.47h19.33a3.36,3.36,0,0,0,3.34-3.34S231.36,62.83,227.33,63.21Z"/><path class="cls-2" d="M91.82,117.18l-.57-.19c-1.76-.63-1.83-1.88-.19-2.77l.63-.37a5.66,5.66,0,0,0,2.77-4.91l-.19-4.54c-.12-1.89-.19-4.84-.19-6.73V95.84a3,3,0,0,0-3.33-3L71.29,94.39A3.63,3.63,0,0,0,68,98v1.26c0,1.83.37,3.34.82,3.34s.69,1.51.5,3.33l-2.65,27.7a3,3,0,0,0,3,3.34H92.51a3.18,3.18,0,0,0,3.21-3.34l-.63-12A5.43,5.43,0,0,0,91.82,117.18ZM82.5,127.76l-2.83.25a3,3,0,0,1-3.28-3.08v-.7a3.34,3.34,0,0,1,3.34-3.4h2.71a3.38,3.38,0,0,1,3.4,3.34A3.68,3.68,0,0,1,82.5,127.76Zm3.34-19.64a3.68,3.68,0,0,1-3.34,3.59l-2.83.25a3,3,0,0,1-3.28-3.09v-3a3.32,3.32,0,0,1,3.34-3.33h2.71a3.37,3.37,0,0,1,3.4,3.33Z"/><path class="cls-2" d="M120.65,126.69l-8.81.94a3,3,0,0,1-3.28-3V96.16a3.36,3.36,0,0,0-3.33-3.34h-1.7a3.56,3.56,0,0,0-3.47,3.34l-.12,2.14c-.07,1.82.31,3.33.88,3.27s.82,1.51.63,3.34l-3.09,28.7a3,3,0,0,0,3,3.34h19.33a3.36,3.36,0,0,0,3.34-3.34S124.68,126.31,120.65,126.69Z"/><path class="cls-2" d="M154.14,104.47c-.06-1.83-.13-4.85-.13-6.68V95.9a3,3,0,0,0-3.33-3l-19.46,1.58A3.61,3.61,0,0,0,128,98V99.3c0,1.83-.44,3.4,1,3.34.44,0,.5,1.51.31,3.34l-2.64,27.57a3,3,0,0,0,3,3.34H133a3.36,3.36,0,0,0,3.33-3.34v-9.38a3.37,3.37,0,0,1,3.34-3.34h2.77a3.37,3.37,0,0,1,3.34,3.34v9.38a3.31,3.31,0,0,0,3.27,3.34h3.4a3.13,3.13,0,0,0,3.15-3.34Zm-8.37,3.71a3.72,3.72,0,0,1-3.34,3.59l-2.77.19a3,3,0,0,1-3.34-3v-3a3.36,3.36,0,0,1,3.34-3.34h2.77a3.36,3.36,0,0,1,3.34,3.34Z"/><path class="cls-2" d="M182.09,106.48l-11,.88c-1.82.13-3.33-.88-3.33-2.26s1.51-2.52,3.4-2.52h10.51A3.36,3.36,0,0,0,185,99.24v-3.4a3,3,0,0,0-3.34-3l-18.38,1.57c-1.83.19-3.34.32-3.4.32l-.57,4.53c-.19,1.83,0,3.34.51,3.34s.69,1.51.5,3.33l-.69,7a3,3,0,0,0,3,3.34h11a3,3,0,0,1,3,3.34l-.44,4.59a4.27,4.27,0,0,1-3.66,3.65l-1.51.07c-1.82.18-3.33-.89-3.33-2.4s-1.45-2.64-3.34-2.64h-1.26a4.09,4.09,0,0,0-3.84,3.34l-1.07,7.3a2.81,2.81,0,0,0,2.83,3.34h21a3.38,3.38,0,0,0,3.34-3.4V109.57A3,3,0,0,0,182.09,106.48Z"/><path class="cls-2" d="M210.73,93l-19.45,1.57A3.67,3.67,0,0,0,188,98.11v1.26a3.35,3.35,0,0,0,3.33,3.33h3.09a3.12,3.12,0,0,1,3.14,3.34l-1.38,27.64a3.16,3.16,0,0,0,3.15,3.33h3.46a3.3,3.3,0,0,0,3.27-3.33V106a3.36,3.36,0,0,1,3.34-3.34h1.38a3.36,3.36,0,0,0,3.34-3.33V96A3,3,0,0,0,210.73,93Z"/><path class="cls-2" d="M240.51,106.48l-11,.88c-1.82.13-3.33-.88-3.33-2.26s1.51-2.52,3.4-2.52h10.51a3.36,3.36,0,0,0,3.34-3.34v-3.4a3,3,0,0,0-3.34-3l-18.38,1.57c-1.83.19-3.34.32-3.4.32l-.57,4.53c-.19,1.83,0,3.34.5,3.34s.7,1.51.51,3.33l-.69,7a3,3,0,0,0,3,3.34h11a3,3,0,0,1,3,3.34l-.44,4.59a4.27,4.27,0,0,1-3.66,3.65l-1.51.07c-1.82.18-3.33-.89-3.33-2.4s-1.45-2.64-3.34-2.64h-1.26a4.09,4.09,0,0,0-3.84,3.34l-1.07,7.3a2.81,2.81,0,0,0,2.83,3.34h21a3.38,3.38,0,0,0,3.34-3.4V109.57A3,3,0,0,0,240.51,106.48Z"/></g></g></svg>