<?xml version="1.0" encoding="utf-8"?>
<!-- Generator: Adobe Illustrator 22.0.1, SVG Export Plug-In . SVG Version: 6.00 Build 0)  -->
<svg version="1.1" id="Layer_1" xmlns="http://www.w3.org/2000/svg" xmlns:xlink="http://www.w3.org/1999/xlink" x="0px" y="0px"
	 viewBox="0 0 512 512" style="enable-background:new 0 0 512 512;" xml:space="preserve">
<style type="text/css">
	.st0{fill:#FEFEFE;}
	.st1{fill:none;}
	.st2{fill:#231F20;}
</style>
<g>
	<g>
		<g>
			<path class="st0" d="M151.4,0H73C32.7,0,0,32.7,0,73v78.4c0,11.4,9.3,20.7,20.7,20.7s20.7-9.3,20.7-20.7V73
				c0-17.4,14.2-31.6,31.6-31.6h78.4c11.4,0,20.7-9.3,20.7-20.7C172.1,9.3,162.8,0,151.4,0z"/>
		</g>
	</g>
	<g>
		<g>
			<path class="st0" d="M439,0h-78.4c-11.4,0-20.7,9.3-20.7,20.7s9.3,20.7,20.7,20.7H439c17.4,0,31.6,14.2,31.6,31.6v78.4
				c0,11.4,9.3,20.7,20.7,20.7s20.7-9.3,20.7-20.7V73C512,32.7,479.3,0,439,0z"/>
		</g>
	</g>
	<g>
		<g>
			<path class="st0" d="M491.3,339.9c-11.4,0-20.7,9.3-20.7,20.7V439c0,17.4-14.2,31.6-31.6,31.6h-78.4c-11.4,0-20.7,9.3-20.7,20.7
				s9.3,20.7,20.7,20.7H439c40.2,0,73-32.7,73-73v-78.4C512,349.2,502.7,339.9,491.3,339.9z"/>
		</g>
	</g>
	<g>
		<g>
			<path class="st0" d="M151.4,470.6H73c-17.4,0-31.6-14.2-31.6-31.6v-78.4c0-11.4-9.3-20.7-20.7-20.7C9.3,339.9,0,349.2,0,360.6
				V439c0,40.2,32.7,73,73,73h78.4c11.4,0,20.7-9.3,20.7-20.7C172.1,479.9,162.8,470.6,151.4,470.6z"/>
		</g>
	</g>
</g>
<g>
	<path class="st1" d="M284,324.4c4.2-2.9,7.5-6.2,9.8-10c2.3-3.7,3.4-7.6,3.4-11.7c0-4.1-1.1-7.8-3.3-10.9c-2.2-3.1-5.8-6-10.7-8.8
		c-1.8-1-3.8-2-6-3v48.1C279.6,327.1,281.9,325.8,284,324.4z"/>
	<path class="st1" d="M216.5,209.5c-1.5,3.5-2.3,6.9-2.3,10.4c0,4.1,0.6,7.5,1.8,10.4c1.2,2.8,3.3,5.4,6.2,7.7c3,2.3,7,4.4,12,6.4
		c0.2,0.1,0.4,0.2,0.6,0.2v-51c-4.5,1.7-8.3,3.9-11.3,6.6C220.4,202.9,218,206.1,216.5,209.5z"/>
	<g>
		<path class="st2" d="M369.5,127.3c-3.8-2-9.7-3-17.8-3H160.3c-8.1,0-14.1,1-17.8,3c-3.8,2-5.6,5.8-5.6,11.5v39.9
			c0,13,5.6,19.5,16.8,19.5c7.6,0,13.3-1.9,17.1-5.8c3.8-3.9,5.6-10.4,5.6-19.6V145h58.6v34.5c5-0.5,10.2-0.8,15.8-0.8
			c8.3,0,17.1,0.6,26.3,1.8V145h58.6v27.8c0,9.2,1.9,15.7,5.6,19.6c3.8,3.9,9.4,5.8,17.1,5.8c5.7,0,10-1.5,12.7-4.6
			c2.7-3.1,4.1-8,4.1-14.9v-39.9C375.1,133.1,373.3,129.3,369.5,127.3z"/>
		<path class="st2" d="M234.9,345.3v22.9c0,13,6,19.5,17.9,19.5c8.5,0,14.7-1.7,18.5-5.1c3.8-3.4,5.7-9.5,5.7-18.4v-20.5
			c-8.6,1.5-18.1,2.3-28.6,2.3C244.3,345.9,239.8,345.7,234.9,345.3z"/>
		<path class="st2" d="M252.9,190.6c-6.7,0-12.4,0.9-17.2,2.6c-0.2,0.1-0.5,0.2-0.7,0.3v51v21.6v67.2c4.2,0.4,8.3,0.6,12.4,0.6
			c7.8,0,14.8-0.9,21-2.6c3.2-0.9,6.1-1.9,8.7-3.1v-48.1v-22.4v-65c-3-0.6-6.1-1-9.2-1.3C262.9,190.9,258,190.6,252.9,190.6z"/>
	</g>
	<g>
		<path class="st0" d="M187.7,240.6c1.8,2.7,4.1,5.1,6.8,7.4c2.7,2.2,6,4.3,9.9,6.2c1.8,0.9,3.4,1.7,4.8,2.4c1.4,0.7,2.8,1.3,4.2,2
			c1.4,0.7,2.9,1.3,4.6,1.9c1.6,0.6,3.7,1.3,6,2.1l10.9,3.6v-21.6c-0.2-0.1-0.4-0.2-0.6-0.2c-5-2-9-4.1-12-6.4c-3-2.3-5-4.8-6.2-7.7
			c-1.2-2.8-1.8-6.3-1.8-10.4c0-3.5,0.8-6.9,2.3-10.4c1.5-3.5,3.9-6.6,7.1-9.4c3-2.7,6.8-4.9,11.3-6.6c0.2-0.1,0.5-0.2,0.7-0.3
			c4.8-1.8,10.6-2.6,17.2-2.6c5.1,0,10.1,0.2,15,0.7c3.1,0.3,6.2,0.8,9.2,1.3c1.7,0.3,3.4,0.6,5,1c1.2,0.3,2.2,0.6,3,0.7
			c0.8,0.2,1.4,0.3,1.8,0.4V207c0,5.3,1.4,9.1,4.1,11.3c2.7,2.2,7,3.3,12.7,3.3c8.3,0,12.4-3.8,12.4-11.4v-13.6
			c0-1.7-0.2-3.1-0.6-4.3c-0.4-1.2-1-2.1-1.9-2.9c-0.9-0.8-2.1-1.5-3.6-2.1c-1.5-0.6-3.4-1.2-5.8-1.8c-9.5-2.2-18.5-3.9-27.2-5
			c-9.2-1.2-18-1.8-26.3-1.8c-5.6,0-10.9,0.3-15.8,0.8c-4.6,0.5-8.9,1.2-13,2.2c-8.5,2-15.7,4.9-21.6,8.6
			c-5.9,3.7-10.5,8.2-13.6,13.5c-3.2,5.3-4.7,11.1-4.7,17.6c0.3,3.8,0.9,7.2,1.8,10.4C184.6,235,185.9,237.9,187.7,240.6z"/>
		<path class="st0" d="M325.7,284.6c-2.5-4.3-6-7.8-10.5-10.7c-2.2-1.3-4-2.4-5.5-3.3c-1.5-0.9-3.1-1.8-4.8-2.6
			c-1.7-0.8-3.7-1.7-5.9-2.6c-2.2-0.9-5.1-1.9-8.7-3.2c-3.7-1.2-6.8-2.3-9.3-3.1c-1.3-0.5-2.7-0.9-4-1.3v22.4c2.2,1,4.2,2,6,3
			c4.9,2.7,8.5,5.6,10.7,8.8c2.2,3.1,3.3,6.7,3.3,10.9c0,4.1-1.1,8-3.4,11.7c-2.3,3.7-5.5,7-9.8,10c-2.1,1.4-4.4,2.7-6.9,3.8
			c-2.7,1.2-5.6,2.2-8.7,3.1c-6.2,1.7-13.2,2.6-21,2.6c-4.1,0-8.2-0.2-12.4-0.6c-7.4-0.8-15.1-2.2-22.9-4.3v-12.8
			c0-5.3-1.4-9.1-4.2-11.4c-2.8-2.3-7-3.5-12.6-3.5c-8.3,0-12.4,3.8-12.4,11.3v14.2c0,3.4,0.8,5.7,2.3,7c1.6,1.5,4.8,2.9,9.5,4.3
			c4.7,1.4,10.1,2.7,16.3,3.9c6.1,1.2,12.6,2.1,19.3,2.8c1.7,0.2,3.3,0.3,4.9,0.5c4.9,0.4,9.4,0.6,13.6,0.6c10.5,0,20-0.8,28.6-2.3
			c1.9-0.3,3.8-0.7,5.7-1.1c10-2.3,18.5-5.4,25.4-9.4c6.9-4,12.2-8.8,15.8-14.5c3.6-5.6,5.4-11.7,5.4-18.4
			C329.5,294,328.2,288.8,325.7,284.6z"/>
	</g>
</g>
</svg>
