<svg xmlns="http://www.w3.org/2000/svg" viewBox="0 0 381.87 421.93"><defs><style>.cls-1{fill:none;}.cls-2{fill:#cb2036;}.cls-3{fill:#fefefe;}</style></defs><title>Asset 1</title><g id="Layer_2" data-name="Layer 2"><g id="Layer_1-2" data-name="Layer 1"><path class="cls-1" d="M235.73,320.52a52.81,52.81,0,0,0,15.63-16,35.49,35.49,0,0,0,5.44-18.73,29.38,29.38,0,0,0-5.32-17.45q-5.32-7.47-17.22-14c-2.87-1.58-6.06-3.16-9.54-4.73v77.05A70,70,0,0,0,235.73,320.52Z"/><path class="cls-1" d="M127.7,136.47a41.22,41.22,0,0,0-3.63,16.62,43.32,43.32,0,0,0,2.83,16.61,30.09,30.09,0,0,0,10,12.28q7.14,5.45,19.25,10.24l1,.4V110.88A59.88,59.88,0,0,0,139,121.43,42.69,42.69,0,0,0,127.7,136.47Z"/><path class="cls-2" d="M372.85,4.74Q363.82,0,344.26,0H37.6Q18,0,9,4.74T0,23.24v63.9q0,31.19,26.9,31.18,18.35,0,27.37-9.36t9-31.45V33h93.86V88.33A231.12,231.12,0,0,1,182.51,87a328,328,0,0,1,42.21,2.89V33h93.86V77.51q0,22.09,9,31.45T355,118.32q13.76,0,20.33-7.34t6.58-23.84V23.24Q381.87,9.47,372.85,4.74Z"/><path class="cls-2" d="M157.15,354.05v36.67q0,31.21,28.74,31.21,20.48,0,29.66-8.1t9.17-29.53V351.39A266.14,266.14,0,0,1,178.88,355Q168.82,355,157.15,354.05Z"/><path class="cls-2" d="M185.91,106.2q-16.09,0-27.64,4.24l-1.12.44V334.8a195.55,195.55,0,0,0,19.92,1,124.91,124.91,0,0,0,33.64-4.15,98.05,98.05,0,0,0,14-5V109.53c-4.85-.89-9.78-1.62-14.81-2.13A236.6,236.6,0,0,0,185.91,106.2Z"/><path class="cls-3" d="M81.49,186.32a53.54,53.54,0,0,0,10.87,11.81,84.6,84.6,0,0,0,15.86,10q4.29,2.22,7.7,3.78l6.79,3.14c2.27,1,4.72,2.06,7.37,3s5.84,2.09,9.62,3.32l17.45,5.8V192.62l-1-.4Q144,187.44,136.87,182a30.09,30.09,0,0,1-10-12.28,43.32,43.32,0,0,1-2.83-16.61,41.22,41.22,0,0,1,3.63-16.62,42.69,42.69,0,0,1,11.32-15,59.88,59.88,0,0,1,18.13-10.55l1.12-.44q11.55-4.23,27.64-4.24a236.6,236.6,0,0,1,24,1.2c5,.51,10,1.24,14.81,2.13,2.71.5,5.41,1,8.07,1.65,2,.5,3.59.9,4.87,1.2s2.23.53,2.83.65v19.38q0,12.74,6.57,18.09t20.38,5.36q19.94,0,19.94-18.28V115.8a22.27,22.27,0,0,0-.91-6.83,10.69,10.69,0,0,0-3.06-4.71,19.72,19.72,0,0,0-5.77-3.41,76.64,76.64,0,0,0-9.29-3q-22.76-5.28-43.63-8A328,328,0,0,0,182.51,87a231.12,231.12,0,0,0-25.36,1.33,171.65,171.65,0,0,0-20.85,3.56q-20.39,4.89-34.65,13.85t-21.86,21.6a53.63,53.63,0,0,0-7.58,28.15A84.64,84.64,0,0,0,75,172.19,49.28,49.28,0,0,0,81.49,186.32Z"/><path class="cls-3" d="M302.66,256.74a49.76,49.76,0,0,0-16.87-17.07q-5.22-3.13-8.83-5.36c-2.42-1.47-5-2.89-7.7-4.24s-5.86-2.74-9.4-4.16-8.2-3.1-13.93-5.07q-8.84-3-14.84-5c-2.13-.72-4.26-1.42-6.37-2.11v35.87c3.48,1.57,6.67,3.15,9.54,4.73q11.9,6.55,17.22,14a29.38,29.38,0,0,1,5.32,17.45,35.49,35.49,0,0,1-5.44,18.73,52.81,52.81,0,0,1-15.63,16,70,70,0,0,1-11,6.14,98.05,98.05,0,0,1-14,5,124.91,124.91,0,0,1-33.64,4.15,195.55,195.55,0,0,1-19.92-1,231.48,231.48,0,0,1-36.7-6.89V307.42q0-12.75-6.68-18.28T93.5,283.6q-19.94,0-19.94,18.09V324.4q0,8.13,3.63,11.26,3.84,3.51,15.17,6.92a252.67,252.67,0,0,0,26.05,6.19q14.72,2.76,30.92,4.52,4,.43,7.82.76,11.67,1,21.73,1a266.14,266.14,0,0,0,45.84-3.65c3.09-.54,6.14-1.13,9.09-1.79q24.12-5.44,40.77-15.14T300,311.29a53.29,53.29,0,0,0,8.72-29.53Q308.67,267,302.66,256.74Z"/></g></g></svg>