<svg xmlns="http://www.w3.org/2000/svg" viewBox="0 0 1293.64 233.47"><defs><style>.cls-1{fill:#ffffff;}</style></defs><title>Asset 4</title><g id="Layer_2" data-name="Layer 2"><g id="Layer_1-2" data-name="Layer 1"><path class="cls-1" d="M61.09,97.4a8,8,0,0,1-8,7.95h-46A7,7,0,0,1,0,97.4L7.39,29c.45-4.35-.3-8-1.5-8-1.35.15-2.25-3.45-2.1-7.8l.3-5.1A8.48,8.48,0,0,1,12.34.21h4.05a8,8,0,0,1,8,8V76a7.26,7.26,0,0,0,7.8,7.2l21-2.25C62.74,80,61.09,97.4,61.09,97.4Z"/><path class="cls-1" d="M136.69,97.4a7.54,7.54,0,0,1-7.5,7.95H74.59a7.22,7.22,0,0,1-7.2-7.95l6.45-65.84c.45-4.35-.15-7.8-1.2-7.8-1.2,0-2.1-3.6-2.1-8V12.66a8.87,8.87,0,0,1,7.95-8.55L124.84.36a7.33,7.33,0,0,1,7.95,7.35v4.5c0,4.35.15,11.55.3,15.75Zm-31.5-13.8a8.87,8.87,0,0,0,8-8.55V31.56a7.87,7.87,0,0,0-8-7.8H98.44a7.84,7.84,0,0,0-7.8,7.8V76.85a7,7,0,0,0,7.8,7.2Z"/><path class="cls-1" d="M200.44,105.35H150a7,7,0,0,1-7-7.95l6.3-66.14c.45-4.35-.15-7.8-1.2-7.8s-2-3.6-2-8V12.36a8.63,8.63,0,0,1,7.8-8.55L200.44.06a7.22,7.22,0,0,1,7.95,7.2v8.25a8,8,0,0,1-7.95,8H174a7.87,7.87,0,0,0-7.95,7.8V76.85a7.22,7.22,0,0,0,7.95,7.2l4.8-.3a8.86,8.86,0,0,0,7.8-8.55v-4c0-4.35-2.1-9-4.65-10.35s-4.8-3.29-5.1-4.49,1.65-2.25,4.5-2.25c2.85-.15,8.85-.45,13.05-.75l3.3-.3a8.26,8.26,0,0,1,8.7,7.2l3.45,35.24c.45,4.35.3,8.25-.45,8.85C208.84,104.9,204.79,105.35,200.44,105.35Z"/><path class="cls-1" d="M285.64,97.4a7.54,7.54,0,0,1-7.5,7.95h-54.6a7.22,7.22,0,0,1-7.2-7.95l6.45-65.84c.45-4.35-.15-7.8-1.2-7.8-1.2,0-2.1-3.6-2.1-8V12.66a8.87,8.87,0,0,1,7.95-8.55L273.79.36a7.33,7.33,0,0,1,7.95,7.35v4.5c0,4.35.15,11.55.3,15.75Zm-31.5-13.8a8.87,8.87,0,0,0,7.95-8.55V31.56a7.87,7.87,0,0,0-7.95-7.8h-6.75a7.84,7.84,0,0,0-7.8,7.8V76.85a7,7,0,0,0,7.8,7.2Z"/><path class="cls-1" d="M348.79,32.76a7.17,7.17,0,0,1,7.95,7.35V97a8,8,0,0,1-7.95,8.1h-50.1a6.67,6.67,0,0,1-6.75-8l2.55-17.4a9.73,9.73,0,0,1,9.15-8h3c4.5,0,7.95,2.85,7.95,6.3,0,3.6,3.6,6.15,8,5.7l3.6-.15a10.18,10.18,0,0,0,8.7-8.7l1.05-11a7.05,7.05,0,0,0-7.2-7.94H302.44a7.13,7.13,0,0,1-7.2-7.95l1.65-16.65c.45-4.35-.15-7.95-1.2-7.95s-1.65-3.6-1.2-8l1.35-10.8c.15,0,3.75-.3,8.1-.75L347.74.21a7.13,7.13,0,0,1,7.95,7.2v8.1a8,8,0,0,1-7.95,8H322.69c-4.5,0-8.1,2.7-8.1,6s3.6,5.7,8,5.4Z"/><path class="cls-1" d="M412.39.66h15c4.35,0,6.15,3.15,3.9,6.75l-5.7,9.6c-2.1,3.75-5.1,6.75-6.45,6.75-1.2,0-34.65,73.79-34.65,73.79A10.09,10.09,0,0,1,375,105.2l-8.25.15c-4.35,0-4.8-3.15-2.85-7l38.4-90A11.11,11.11,0,0,1,412.39.66Z"/><path class="cls-1" d="M491.59,82.55a7.13,7.13,0,0,1,8,7.2v7.8a8,8,0,0,1-8,8h-45.3a8,8,0,0,1-8-8V94.7a8.76,8.76,0,0,1,8-8.55l3.9-.3a9.44,9.44,0,0,0,8.4-8.55L460.84,31c.3-4.35-2.55-7.8-6.3-7.8s-6.9-3.6-6.9-8.1v-2.7a9,9,0,0,1,7.95-8.7L486.64.36a7,7,0,0,1,7.95,7.05v7.65c0,4.5-3.15,8.1-6.9,8.1s-6.9,3.45-6.9,8V75.35a7.17,7.17,0,0,0,7.95,7.35Z"/><path class="cls-1" d="M566.74,97.4a8,8,0,0,1-8,7.95h-46a7,7,0,0,1-7.05-7.95L513,29c.45-4.35-.3-8-1.5-8-1.35.15-2.25-3.45-2.1-7.8l.3-5.1A8.48,8.48,0,0,1,518,.21h4a8,8,0,0,1,8,8V76a7.26,7.26,0,0,0,7.8,7.2l21-2.25C568.39,80,566.74,97.4,566.74,97.4Z"/><path class="cls-1" d="M634.08,97.4a8,8,0,0,1-8,7.95h-46A7,7,0,0,1,573,97.4L580.39,29c.45-4.35-.3-8-1.5-8-1.35.15-2.25-3.45-2.1-7.8l.3-5.1A8.48,8.48,0,0,1,585.34.21h4a8,8,0,0,1,8,8V76a7.26,7.26,0,0,0,7.8,7.2l21-2.25C635.73,80,634.08,97.4,634.08,97.4Z"/><path class="cls-1" d="M713.28,97.4a7.57,7.57,0,0,1-7.65,7.95h-58a7.22,7.22,0,0,1-7.2-7.95L647.14,28c.3-4.2.15-6.9-1.2-7.8-.9-.75-1.8-3.6-1.5-7.95l.15-4.05a8.24,8.24,0,0,1,8.24-7.8h4.06a7.87,7.87,0,0,1,7.94,7.8V76a7.22,7.22,0,0,0,7.95,7.2l7.8-.6A8.76,8.76,0,0,0,688.53,74V8.16a7.75,7.75,0,0,1,7.8-7.8h4a8.48,8.48,0,0,1,8.4,7.8Z"/><path class="cls-1" d="M776.43,32.76a7.17,7.17,0,0,1,8,7.35V97a8,8,0,0,1-8,8.1h-50.1a6.66,6.66,0,0,1-6.74-8l2.55-17.4a9.73,9.73,0,0,1,9.15-8h3c4.5,0,8,2.85,8,6.3,0,3.6,3.6,6.15,7.95,5.7l3.6-.15a10.18,10.18,0,0,0,8.7-8.7l1-11a7.05,7.05,0,0,0-7.2-7.94H730.08a7.13,7.13,0,0,1-7.19-7.95l1.65-16.65c.45-4.35-.15-7.95-1.2-7.95-1.2,0-1.65-3.6-1.2-8l1.35-10.8c.15,0,3.75-.3,8.09-.75L775.38.21a7.13,7.13,0,0,1,8,7.2v8.1a8,8,0,0,1-8,8h-25c-4.5,0-8.1,2.7-8.1,6s3.6,5.7,7.95,5.4Z"/><path class="cls-1" d="M852.63,15.81a8,8,0,0,1-8,8h-3.3a8,8,0,0,0-8,8V97.55a7.87,7.87,0,0,1-7.8,8h-8.25a7.54,7.54,0,0,1-7.5-8l3.3-65.84a7.45,7.45,0,0,0-7.5-7.95h-7.35a8,8,0,0,1-8-8v-3a8.76,8.76,0,0,1,8-8.55L844.68.51a7.13,7.13,0,0,1,8,7.2Z"/><path class="cls-1" d="M917.43,69.5l2.25,27.75a7.3,7.3,0,0,1-7.2,8h-8.4a8,8,0,0,1-8-8V69.5c0-4.35-3.15-7.8-7-7.8S882,65.15,882,69.5V97.25a7.87,7.87,0,0,1-7.8,8h-8.4a7,7,0,0,1-7.05-8l6.3-66c.45-4.35-.15-7.8-1.2-7.8s-2-3.6-2-8V12.36a8.63,8.63,0,0,1,7.8-8.55L916.53.06c4.35-.45,8,1.8,8,5s.3,9.3.6,13.5l3,35.25c.3,4.35-2.1,7.94-5.4,7.94S917,65.15,917.43,69.5Zm-20.7-29.69a8.76,8.76,0,0,0,7.95-8.55,8,8,0,0,0-7.95-7.8H890a8,8,0,0,0-8,7.8v1.8a7.33,7.33,0,0,0,8,7.35Z"/><path class="cls-1" d="M1003.38,97.25a7.45,7.45,0,0,1-7.5,8h-8.1a7.87,7.87,0,0,1-7.8-8V74.9a8,8,0,0,0-8-8h-6.6a8,8,0,0,0-7.95,8V97.25a8,8,0,0,1-8,8h-8.1a7,7,0,0,1-7-8l6.3-65.69c.45-4.35.3-7.95-.75-7.95-3.45.15-2.4-3.6-2.4-7.95v-3a8.63,8.63,0,0,1,7.8-8.55L991.68.36a7.22,7.22,0,0,1,8,7.2v4.5c0,4.35.15,11.55.3,15.9Zm-45.9-58.64a7.13,7.13,0,0,0,7.95,7.2l6.6-.45a8.87,8.87,0,0,0,8-8.55V31.56a8,8,0,0,0-8-7.95h-6.6a8,8,0,0,0-7.95,8Z"/><path class="cls-1" d="M1071.78,15.81a8,8,0,0,1-8,8h-3.3a8,8,0,0,0-8,8V97.55a7.87,7.87,0,0,1-7.8,8h-8.25a7.54,7.54,0,0,1-7.5-8l3.3-65.84a7.45,7.45,0,0,0-7.5-7.95h-7.35a8,8,0,0,1-8-8v-3a8.76,8.76,0,0,1,8-8.55L1063.83.51a7.13,7.13,0,0,1,8,7.2Z"/><path class="cls-1" d="M1131,82.55a7.13,7.13,0,0,1,8,7.2v7.8a8,8,0,0,1-8,8h-45.3a8,8,0,0,1-8-8V94.7a8.76,8.76,0,0,1,8-8.55l3.9-.3a9.44,9.44,0,0,0,8.4-8.55L1100.28,31c.3-4.35-2.55-7.8-6.3-7.8s-6.9-3.6-6.9-8.1v-2.7a9,9,0,0,1,8-8.7l31-3.3a7,7,0,0,1,8,7.05v7.65c0,4.5-3.15,8.1-6.9,8.1s-6.9,3.45-6.9,8V75.35a7.17,7.17,0,0,0,8,7.35Z"/><path class="cls-1" d="M1214.43,97.4a7.54,7.54,0,0,1-7.5,7.95h-54.6a7.22,7.22,0,0,1-7.2-7.95l6.45-65.84c.45-4.35-.15-7.8-1.2-7.8-1.2,0-2.1-3.6-2.1-8V12.66a8.87,8.87,0,0,1,8-8.55L1202.58.36a7.33,7.33,0,0,1,8,7.35v4.5c0,4.35.15,11.55.3,15.75Zm-31.5-13.8a8.87,8.87,0,0,0,8-8.55V31.56a7.87,7.87,0,0,0-8-7.8h-6.75a7.84,7.84,0,0,0-7.8,7.8V76.85a7,7,0,0,0,7.8,7.2Z"/><path class="cls-1" d="M1269.63,105.35a10.4,10.4,0,0,1-9.75-7.65l-14.4-55.19c-1-4.2-2-4.2-1.8.15l.6,54.89a7.75,7.75,0,0,1-7.8,7.8h-8.7a6.9,6.9,0,0,1-7-7.8l6.75-67.64c.45-4.35-.15-7.95-1.35-7.95-1.2-.15-2-3.75-1.65-8.1v-1.2a10.35,10.35,0,0,1,8.25-9.15l10.5-1.65a9,9,0,0,1,9.9,6.45l16.2,62.39c1.2,4.2,1.8,4,1.65-.3l-3.6-61.19a7.89,7.89,0,0,1,7.35-8.4l3.45-.3a7.67,7.67,0,0,1,8.4,7.2l7.05,89.54a7.33,7.33,0,0,1-7.35,8Z"/><path class="cls-1" d="M666.25,147.38c3.45-1.2,20.25,6.3,20.25,8.1s-35.25,32.7-35.25,32.7a9,9,0,0,1-9,0s-35.1-31.05-35.1-32.7,16.65-9.3,20.1-8.1c2.25.75,12.45,11.7,19.5,19.5C653.8,159.08,664,148.13,666.25,147.38Z"/><path class="cls-1" d="M666.25,191.38c3.45-1.2,20.25,6.3,20.25,8.1s-35.25,32.7-35.25,32.7a9,9,0,0,1-9,0s-35.1-31.05-35.1-32.7,16.65-9.3,20.1-8.1c2.25.75,12.45,11.7,19.5,19.5C653.8,203.08,664,192.13,666.25,191.38Z"/></g></g></svg>
