<svg xmlns="http://www.w3.org/2000/svg" viewBox="0 0 1079.32 233.53"><defs><style>.cls-1{fill:#fefefe;}</style></defs><title>Asset 6</title><g id="Layer_2" data-name="Layer 2"><g id="Layer_1-2" data-name="Layer 1"><path class="cls-1" d="M85,6.32l-13,90.9a9.63,9.63,0,0,1-9.3,8.1H47.16A9.48,9.48,0,0,1,38,97.22L36.22,84c-.45-4.5-1.65-4.5-2.4-.15l-2.4,13.5A10.06,10.06,0,0,1,22,105.32H11.32a8.16,8.16,0,0,1-8.1-8.1l.15-66.45c0-4.5-.75-8.1-1.8-7.95s-1.8-3.6-1.5-8.1l.15-3.3C.37,7.07,3.52,2.27,7,.77c3.6-1.35,6.9,1.05,7.35,5.55l6.9,64.35c.45,4.35,1.35,4.35,1.8,0l7.35-59.25C31,2.57,40.26.62,40.26.62c4.2-1.35,7.8,1.35,8,5.7L50,74.42c.15,4.5,1.2,4.65,2.4.3l17.4-63.6c1.2-4.2,5.4-8.85,9.3-10.35C83-.58,85.56,1.82,85,6.32Z"/><path class="cls-1" d="M122.16,23.87a7.84,7.84,0,0,0-7.8,7.8v7.2a7.06,7.06,0,0,0,7.8,7.05l18.9-2c4.35-.3,7.2,2.85,6.6,7.05l-1.35,8.4a9.75,9.75,0,0,1-9.15,7.8h-15a7.84,7.84,0,0,0-7.8,7.8v2a7.26,7.26,0,0,0,7.8,7.2l26.4-2.25a7.21,7.21,0,0,1,7.8,7.35v8.1a7.87,7.87,0,0,1-7.8,7.95H98.31a7,7,0,0,1-7-7.8l6.3-65.85c.45-4.35-.15-7.8-1.2-7.8s-2-3.6-2-8V12.77a8.48,8.48,0,0,1,7.8-8.4L148.56.62a7,7,0,0,1,7.8,7.2v8.1a7.87,7.87,0,0,1-7.8,8Z"/><path class="cls-1" d="M222.51,58.22c4.05,1.5,7.65,6.3,7.8,10.65l1.5,28.5a7.57,7.57,0,0,1-7.65,7.95H169.71a7.06,7.06,0,0,1-7.2-7.95l6.3-66c.45-4.35-.15-7.95-1.2-7.95s-2-3.6-2-8v-3a8.64,8.64,0,0,1,8-8.55L220,.17a7.13,7.13,0,0,1,7.95,7.2v4.35c0,4.5.15,11.55.45,16l.45,10.8c.3,4.35-2.7,9.6-6.6,11.7l-1.5.9c-3.9,2.1-3.75,5.1.45,6.6ZM208.26,31.37a8,8,0,0,0-8.1-7.95h-6.45a7.91,7.91,0,0,0-8,8v7.05a7.21,7.21,0,0,0,7.8,7.35l6.75-.6a8.76,8.76,0,0,0,7.95-8.55Zm-8.1,35.55h-6.45a7.94,7.94,0,0,0-8,8.1v1.65a7.21,7.21,0,0,0,7.8,7.35l6.75-.6a8.76,8.76,0,0,0,7.95-8.55A8,8,0,0,0,200.16,66.92Z"/><path class="cls-1" d="M318.66,53a6.63,6.63,0,0,1,.9,2.4l6.6,4.5c1.8,1.2,4.65,3,6.6,4.2l1.95,1.35c1.8,1,2.7,2.7,2,3.45L329,76.82c-.75.75-2.85.45-4.8-.75l-1.2-.9a21.26,21.26,0,0,1-2.4-1.65l1.5,25.65a5.41,5.41,0,0,1-5.4,5.55l-24.9.9a11.25,11.25,0,0,1-11.7-8.85c-1.95-7.8-4.65-31.95-4.65-31.95.15-3,2.55-11.25,5.55-11.55a6.52,6.52,0,0,1-1.05-3l-2.4-37.65c-.15-3,2.25-8.25,5.25-8.25l38.25-4a5,5,0,0,1,5.25,5.25l-1.65,29.1,6.9-2.25c2.25-.6,4.2-.45,4.5.6l4.2,12.6c.3.9-1.2,2.25-3.6,2.85ZM308.31,71.72a5.38,5.38,0,0,0-5.55-5.25h-4.5a5.29,5.29,0,0,0-5.55,5.25L295,85.82c0,2.85,2.85,5,5.85,4.8l1.95-.45a5.85,5.85,0,0,0,5.55-5.55Zm-10.65-40.2c.3,2.55,2.85,4.2,5.7,3.9l4.05-.6a4.72,4.72,0,0,0,4.5-5.1l-1.5-12c-.45-2.4-3-3.9-5.7-3.45l-4.2.9c-2.7.6-4.8,3-4.35,5.4Z"/><path class="cls-1" d="M453.06,97.22a7.45,7.45,0,0,1-7.5,8h-8.1a7.87,7.87,0,0,1-7.8-8V74.87a8,8,0,0,0-8-8h-6.6a8,8,0,0,0-7.95,8V97.22a8,8,0,0,1-8,8h-8.1a7,7,0,0,1-7.05-8l6.3-65.7c.45-4.35.3-7.95-.75-7.95-3.45.15-2.4-3.6-2.4-8v-3A8.63,8.63,0,0,1,395,4.07L441.36.32a7.22,7.22,0,0,1,7.95,7.2V12c0,4.35.15,11.55.3,15.9Zm-45.9-58.65a7.13,7.13,0,0,0,7.95,7.2l6.6-.45a8.87,8.87,0,0,0,8-8.55V31.52a8,8,0,0,0-8-7.95h-6.6a8,8,0,0,0-7.95,8Z"/><path class="cls-1" d="M528.66,54.17a7.13,7.13,0,0,1-7.2,7.95H490.71a8,8,0,0,0-7.95,7.95V97.52a8,8,0,0,1-7.95,8.1h-8.1a7.25,7.25,0,0,1-7.35-8l6.45-65.85c.45-4.35-.15-7.95-1.2-7.95s-1.95-3.6-1.95-8V12.77a8.64,8.64,0,0,1,7.95-8.55L517.11.47c4.35-.45,7.95,1.8,7.95,5s.3,9.15.75,13.5Zm-31.35-14a8.76,8.76,0,0,0,7.95-8.55,8,8,0,0,0-7.95-7.8h-6.6a8,8,0,0,0-7.95,8v1.65a7.33,7.33,0,0,0,7.95,7.35Z"/><path class="cls-1" d="M604.26,54.17a7.13,7.13,0,0,1-7.2,7.95H566.31a8,8,0,0,0-7.95,7.95V97.52a8,8,0,0,1-8,8.1h-8.1a7.25,7.25,0,0,1-7.35-8l6.45-65.85c.45-4.35-.15-7.95-1.2-7.95-1.2,0-2-3.6-2-8V12.77a8.64,8.64,0,0,1,8-8.55L592.71.47c4.35-.45,7.95,1.8,7.95,5s.3,9.15.75,13.5Zm-31.35-14a8.76,8.76,0,0,0,8-8.55,8,8,0,0,0-8-7.8h-6.6a8,8,0,0,0-7.95,8v1.65a7.33,7.33,0,0,0,7.95,7.35Z"/><path class="cls-1" d="M714.21,97.22a9,9,0,0,1-8.7,8H655.26a7.13,7.13,0,0,1-7.2-8l6.6-69.6c.45-4.35-.15-7.95-1.35-7.95s-2.1-3.45-2.1-7.65a8.59,8.59,0,0,1,7.95-8.25L705.51,0a8,8,0,0,1,8.55,7.35L717.21,47a112.52,112.52,0,0,1-.15,15.9Zm-17.55-35.4a66.06,66.06,0,0,0,.15-13.35l-1.65-14.55a8.45,8.45,0,0,0-7.5-7l-5.55-.3c-3.6-.3-5.7,2.55-5.7,6.3l-.9,42.9a5.55,5.55,0,0,0,6.6,5.7l5.7-.9a9.79,9.79,0,0,0,7.5-7.8Z"/><path class="cls-1" d="M754.56,23.87a7.84,7.84,0,0,0-7.8,7.8v7.2a7.06,7.06,0,0,0,7.8,7.05l18.9-2c4.35-.3,7.2,2.85,6.6,7.05l-1.35,8.4a9.75,9.75,0,0,1-9.15,7.8h-15a7.84,7.84,0,0,0-7.8,7.8v2a7.26,7.26,0,0,0,7.8,7.2L781,81.92a7.21,7.21,0,0,1,7.8,7.35v8.1a7.87,7.87,0,0,1-7.8,7.95H730.71a7,7,0,0,1-7.05-7.8L730,31.67c.45-4.35-.15-7.8-1.2-7.8s-2-3.6-2-8V12.77a8.48,8.48,0,0,1,7.8-8.4L781,.62a7,7,0,0,1,7.8,7.2v8.1a7.87,7.87,0,0,1-7.8,8Z"/><path class="cls-1" d="M851.76,32.72a7.17,7.17,0,0,1,8,7.35V96.92a8,8,0,0,1-8,8.1h-50.1a6.67,6.67,0,0,1-6.75-8l2.55-17.4a9.73,9.73,0,0,1,9.15-8h3c4.5,0,7.95,2.85,7.95,6.3,0,3.6,3.6,6.15,8,5.7l3.6-.15a10.18,10.18,0,0,0,8.7-8.7l1.05-11a7.06,7.06,0,0,0-7.2-8H805.41a7.13,7.13,0,0,1-7.2-7.95l1.65-16.65c.45-4.35-.15-7.95-1.2-7.95s-1.65-3.6-1.2-8l1.35-10.8c.15,0,3.75-.3,8.1-.75L850.71.17a7.13,7.13,0,0,1,7.95,7.2v8.1a8,8,0,0,1-7.95,8H825.66c-4.5,0-8.1,2.7-8.1,6s3.6,5.7,8,5.4Z"/><path class="cls-1" d="M919,82.52a7.13,7.13,0,0,1,7.95,7.2v7.8a8,8,0,0,1-7.95,8h-45.3a8,8,0,0,1-7.95-8V94.67a8.76,8.76,0,0,1,7.95-8.55l3.9-.3a9.44,9.44,0,0,0,8.4-8.55l2.25-46.35c.3-4.35-2.55-7.8-6.3-7.8S875,19.52,875,15v-2.7a9,9,0,0,1,8-8.7l31-3.3a7,7,0,0,1,8,7.05V15c0,4.5-3.15,8.1-6.9,8.1s-6.9,3.45-6.9,8V75.32a7.17,7.17,0,0,0,8,7.35Z"/><path class="cls-1" d="M990.51,105.32h-50.4a7,7,0,0,1-7.05-7.95l6.3-66.15c.45-4.35-.15-7.8-1.2-7.8s-1.95-3.6-1.95-8V12.32A8.63,8.63,0,0,1,944,3.77L990.51,0a7.22,7.22,0,0,1,8,7.2v8.25a8,8,0,0,1-8,8h-26.4a7.87,7.87,0,0,0-8,7.8v45.6a7.22,7.22,0,0,0,8,7.2l4.8-.3a8.86,8.86,0,0,0,7.8-8.55v-4c0-4.35-2.1-9-4.65-10.35-2.4-1.35-4.8-3.3-5.1-4.5-.45-1.2,1.65-2.25,4.5-2.25,2.85-.15,8.85-.45,13-.75l3.3-.3a8.26,8.26,0,0,1,8.7,7.2L1000,95.42c.44,4.35.3,8.25-.45,8.85S994.86,105.32,990.51,105.32Z"/><path class="cls-1" d="M1055.31,105.32a10.4,10.4,0,0,1-9.75-7.65l-14.4-55.2c-1.05-4.2-2-4.2-1.8.15l.6,54.9a7.75,7.75,0,0,1-7.8,7.8h-8.7a6.9,6.9,0,0,1-7.05-7.8l6.75-67.65c.45-4.35-.15-7.95-1.35-7.95-1.2-.15-1.95-3.75-1.65-8.1v-1.2a10.35,10.35,0,0,1,8.25-9.15l10.5-1.65a9,9,0,0,1,9.9,6.45l16.2,62.4c1.2,4.2,1.8,4,1.65-.3l-3.6-61.2a7.89,7.89,0,0,1,7.34-8.4l3.46-.3a7.67,7.67,0,0,1,8.39,7.2l7,89.55a7.33,7.33,0,0,1-7.35,8Z"/><path class="cls-1" d="M559.09,147.44c3.45-1.2,20.25,6.3,20.25,8.1s-35.25,32.7-35.25,32.7a9,9,0,0,1-9,0S500,157.19,500,155.54c-.15-1.8,16.65-9.3,20.1-8.1,2.25.75,12.45,11.7,19.5,19.5C546.64,159.14,556.84,148.19,559.09,147.44Z"/><path class="cls-1" d="M559.09,191.44c3.45-1.2,20.25,6.3,20.25,8.1s-35.25,32.7-35.25,32.7a9,9,0,0,1-9,0S500,201.19,500,199.54c-.15-1.8,16.65-9.3,20.1-8.1,2.25.75,12.45,11.7,19.5,19.5C546.64,203.14,556.84,192.19,559.09,191.44Z"/></g></g></svg>