<svg xmlns="http://www.w3.org/2000/svg" viewBox="0 0 853.15 235.04"><defs><style>.cls-1{fill:#ffffff;}</style></defs><title>tit3</title><g id="Layer_2" data-name="Layer 2"><g id="Layer_1-2" data-name="Layer 1"><path class="cls-1" d="M446,149c3.45-1.2,20.25,6.3,20.25,8.1S431,189.83,431,189.83a9,9,0,0,1-9,0s-35.1-31.05-35.1-32.7,16.65-9.3,20.1-8.1c2.25.75,12.45,11.7,19.5,19.5C433.55,160.73,443.75,149.78,446,149Z"/><path class="cls-1" d="M446,193c3.45-1.2,20.25,6.3,20.25,8.1S431,233.83,431,233.83a9,9,0,0,1-9,0s-35.1-31.05-35.1-32.7,16.65-9.3,20.1-8.1c2.25.75,12.45,11.7,19.5,19.5C433.55,204.73,443.75,193.78,446,193Z"/><path class="cls-1" d="M32,24.53a8.11,8.11,0,0,0-8.06,8.06V40A7.3,7.3,0,0,0,32,47.32l19.53-2c4.5-.31,7.44,3,6.82,7.29l-1.39,8.68a10.08,10.08,0,0,1-9.46,8.06H32a8.1,8.1,0,0,0-8.06,8.06v2A7.5,7.5,0,0,0,32,86.84l27.28-2.32a7.44,7.44,0,0,1,8.06,7.59v8.37a8.14,8.14,0,0,1-8.06,8.22H7.33A7.21,7.21,0,0,1,0,100.64l6.51-68C7,28.1,6.4,24.53,5.31,24.53s-2-3.72-2-8.21V13.06a8.77,8.77,0,0,1,8.06-8.68L59.25.51A7.24,7.24,0,0,1,67.31,8v8.37a8.13,8.13,0,0,1-8.06,8.21Z"/><path class="cls-1" d="M141.56,108.7a9.61,9.61,0,0,1-9.15-8.06l-7.28-61.85c-.47-4.34-1.24-4.34-1.71,0l-3.1,30.07c-.46,4.5-3.72,8.06-7.28,8.06s-7.29-3.56-8.22-7.9L98.93,41c-.93-4.34-1.55-4.34-1.39.16l2.17,59.36A7.79,7.79,0,0,1,92,108.7H81a7.26,7.26,0,0,1-7.28-8.22l7.75-69.13c.46-4.34,0-8.06-1.09-8.06s-1.7-3.56-1.39-8.06L79.25,12a10,10,0,0,1,8.68-9l3.56-.47a10,10,0,0,1,10.23,6.82l3.88,15.19c1.24,4.34,2.79,4.34,3.56-.15l3-16.12A10.1,10.1,0,0,1,121.72.35h9.92a9.63,9.63,0,0,1,9.3,8.06l13.79,92.23a6.9,6.9,0,0,1-7,8.06Z"/><path class="cls-1" d="M232.54,100.33a7.69,7.69,0,0,1-7.75,8.21h-8.37a8.14,8.14,0,0,1-8.06-8.21V77.23A8.27,8.27,0,0,0,200.15,69h-6.82a8.27,8.27,0,0,0-8.22,8.21v23.1a8.27,8.27,0,0,1-8.21,8.21h-8.37a7.26,7.26,0,0,1-7.29-8.21l6.51-67.89c.47-4.5.31-8.22-.77-8.22-3.57.16-2.48-3.72-2.48-8.21v-3.1a8.91,8.91,0,0,1,8.06-8.84L220.45.2a7.46,7.46,0,0,1,8.22,7.44v4.65c0,4.49.15,11.93.31,16.43ZM185.11,39.72a7.37,7.37,0,0,0,8.22,7.44l6.82-.46a9.17,9.17,0,0,0,8.21-8.84V32.44a8.27,8.27,0,0,0-8.21-8.22h-6.82a8.27,8.27,0,0,0-8.22,8.22Z"/><path class="cls-1" d="M293.92,85.14a7.37,7.37,0,0,1,8.22,7.44v8.06a8.27,8.27,0,0,1-8.22,8.21H247.11a8.27,8.27,0,0,1-8.21-8.21v-3a9,9,0,0,1,8.21-8.83l4-.31a9.75,9.75,0,0,0,8.68-8.84l2.33-47.89c.31-4.5-2.64-8.06-6.51-8.06s-7.13-3.72-7.13-8.37V12.6a9.31,9.31,0,0,1,8.21-9L288.8.2A7.26,7.26,0,0,1,297,7.48v7.91c0,4.65-3.26,8.37-7.13,8.37s-7.13,3.56-7.13,8.21V77.7A7.4,7.4,0,0,0,291,85.29Z"/><path class="cls-1" d="M371.58,100.48a8.28,8.28,0,0,1-8.22,8.22H315.78a7.26,7.26,0,0,1-7.29-8.22l7.6-70.68c.46-4.49-.31-8.21-1.55-8.21-1.4.15-2.33-3.57-2.17-8.06l.31-5.27A8.76,8.76,0,0,1,321.2,0h4.19a8.27,8.27,0,0,1,8.21,8.22V78.32a7.5,7.5,0,0,0,8.06,7.44l21.7-2.33C373.28,82.5,371.58,100.48,371.58,100.48Z"/><path class="cls-1" d="M478.83,60c4.19,1.55,7.91,6.51,8.06,11l1.55,29.45a7.81,7.81,0,0,1-7.9,8.22H424.27a7.29,7.29,0,0,1-7.44-8.22l6.51-68.2c.47-4.49-.15-8.21-1.24-8.21s-2-3.72-2-8.22v-3.1a8.92,8.92,0,0,1,8.21-8.83L476.2,0a7.38,7.38,0,0,1,8.21,7.44V12c0,4.65.16,11.93.47,16.58l.46,11.16c.31,4.5-2.79,9.92-6.82,12.09l-1.55.93c-4,2.17-3.87,5.27.47,6.82ZM464.11,32.28a8.3,8.3,0,0,0-8.37-8.21h-6.67a8.16,8.16,0,0,0-8.21,8.21v7.29a7.44,7.44,0,0,0,8.06,7.59l7-.62a9.05,9.05,0,0,0,8.22-8.83ZM455.74,69h-6.67a8.2,8.2,0,0,0-8.21,8.37v1.7a7.45,7.45,0,0,0,8.06,7.6l7-.62a9.05,9.05,0,0,0,8.22-8.84A8.3,8.3,0,0,0,455.74,69Z"/><path class="cls-1" d="M558,100.48a8.27,8.27,0,0,1-8.22,8.22H502.24a7.26,7.26,0,0,1-7.29-8.22l7.6-70.68c.46-4.49-.31-8.21-1.55-8.21-1.4.15-2.33-3.57-2.17-8.06l.31-5.27A8.76,8.76,0,0,1,507.66,0h4.19a8.27,8.27,0,0,1,8.21,8.22V78.32a7.5,7.5,0,0,0,8.06,7.44l21.7-2.33C559.74,82.5,558,100.48,558,100.48Z"/><path class="cls-1" d="M635.85,100.33a7.7,7.7,0,0,1-7.75,8.21h-8.37a8.13,8.13,0,0,1-8.06-8.21V77.23A8.27,8.27,0,0,0,603.45,69h-6.82a8.27,8.27,0,0,0-8.21,8.21v23.1a8.27,8.27,0,0,1-8.22,8.21h-8.37a7.25,7.25,0,0,1-7.28-8.21l6.51-67.89c.46-4.5.31-8.22-.78-8.22-3.56.16-2.48-3.72-2.48-8.21v-3.1a8.92,8.92,0,0,1,8.06-8.84L623.76.2A7.45,7.45,0,0,1,632,7.64v4.65c0,4.49.16,11.93.31,16.43ZM588.42,39.72a7.37,7.37,0,0,0,8.21,7.44l6.82-.46a9.17,9.17,0,0,0,8.22-8.84V32.44a8.27,8.27,0,0,0-8.22-8.22h-6.82a8.27,8.27,0,0,0-8.21,8.22Z"/><path class="cls-1" d="M701.1,33.68a7.4,7.4,0,0,1,8.22,7.59V100a8.3,8.3,0,0,1-8.22,8.37H649.33a6.89,6.89,0,0,1-7-8.22l2.63-18A10.06,10.06,0,0,1,654.45,74h3.1c4.65,0,8.21,2.94,8.21,6.51,0,3.72,3.72,6.35,8.22,5.89l3.72-.16a10.52,10.52,0,0,0,9-9l1.08-11.31a7.29,7.29,0,0,0-7.44-8.22H653.21a7.37,7.37,0,0,1-7.44-8.21l1.7-17.21c.47-4.49-.15-8.21-1.24-8.21s-1.7-3.72-1.24-8.22l1.4-11.16c.15,0,3.87-.31,8.37-.77L700,0a7.38,7.38,0,0,1,8.21,7.44v8.37A8.27,8.27,0,0,1,700,24.07H674.13c-4.65,0-8.37,2.79-8.37,6.2s3.72,5.89,8.22,5.58Z"/><path class="cls-1" d="M779.84,16.16a8.27,8.27,0,0,1-8.21,8.22h-3.41A8.27,8.27,0,0,0,760,32.59v68.05a8.14,8.14,0,0,1-8.06,8.21h-8.52a7.78,7.78,0,0,1-7.75-8.21l3.41-68a7.7,7.7,0,0,0-7.75-8.21h-7.6a8.28,8.28,0,0,1-8.22-8.22v-3.1a9.06,9.06,0,0,1,8.22-8.83L771.63.35a7.38,7.38,0,0,1,8.21,7.44Z"/><path class="cls-1" d="M844.94,33.68a7.4,7.4,0,0,1,8.21,7.59V100a8.3,8.3,0,0,1-8.21,8.37H793.17a6.89,6.89,0,0,1-7-8.22l2.64-18A10.05,10.05,0,0,1,798.28,74h3.1c4.65,0,8.22,2.94,8.22,6.51,0,3.72,3.72,6.35,8.21,5.89l3.72-.16a10.5,10.5,0,0,0,9-9l1.09-11.31a7.29,7.29,0,0,0-7.44-8.22H797a7.38,7.38,0,0,1-7.44-8.21l1.71-17.21c.46-4.49-.16-8.21-1.24-8.21-1.24,0-1.71-3.72-1.24-8.22l1.39-11.16c.16,0,3.88-.31,8.37-.77L843.85,0a7.38,7.38,0,0,1,8.22,7.44v8.37a8.27,8.27,0,0,1-8.22,8.22H818c-4.65,0-8.37,2.79-8.37,6.2s3.72,5.89,8.21,5.58Z"/></g></g></svg>
