<svg xmlns="http://www.w3.org/2000/svg" viewBox="0 0 1051.2 233.1"><defs><style>.cls-1{fill:#fefefe;}</style></defs><title>tit3</title><g id="Layer_2" data-name="Layer 2"><g id="Layer_1-2" data-name="Layer 1"><path class="cls-1" d="M545,147.09c3.45-1.2,20.25,6.3,20.25,8.1S530,187.89,530,187.89a9,9,0,0,1-9,0s-35.1-31-35.1-32.7,16.65-9.3,20.1-8.1c2.25.75,12.45,11.7,19.5,19.5C532.57,158.79,542.77,147.84,545,147.09Z"/><path class="cls-1" d="M545,191.09c3.45-1.2,20.25,6.3,20.25,8.1S530,231.89,530,231.89a9,9,0,0,1-9,0s-35.1-31-35.1-32.7,16.65-9.3,20.1-8.1c2.25.75,12.45,11.7,19.5,19.5C532.57,202.79,542.77,191.84,545,191.09Z"/><path class="cls-1" d="M31,23.76a7.86,7.86,0,0,0-7.81,7.81v7.21a7.06,7.06,0,0,0,7.81,7l18.92-1.95c4.35-.3,7.21,2.85,6.61,7.06l-1.36,8.41A9.75,9.75,0,0,1,46,67.15H31A7.86,7.86,0,0,0,23.16,75v2A7.27,7.27,0,0,0,31,84.12L57.4,81.87a7.21,7.21,0,0,1,7.8,7.35v8.11a7.88,7.88,0,0,1-7.8,8H7.1A7,7,0,0,1,0,97.48L6.35,31.57c.45-4.35-.15-7.81-1.2-7.81s-1.95-3.6-1.95-8V12.65A8.48,8.48,0,0,1,11,4.25L57.4.49A7,7,0,0,1,65.2,7.7v8.11a7.87,7.87,0,0,1-7.8,8Z"/><path class="cls-1" d="M137.12,105.29a9.3,9.3,0,0,1-8.86-7.81l-7-59.9c-.45-4.21-1.2-4.21-1.65,0l-3,29.12c-.45,4.36-3.6,7.81-7,7.81s-7.06-3.45-8-7.66L95.83,39.68c-.9-4.21-1.5-4.21-1.35.15l2.1,57.5a7.54,7.54,0,0,1-7.5,8H78.42a7,7,0,0,1-7.06-8l7.51-67c.45-4.2,0-7.81-1.05-7.81s-1.65-3.45-1.35-7.8l.3-3.16a9.74,9.74,0,0,1,8.4-8.71l3.46-.45a9.65,9.65,0,0,1,9.91,6.61l3.75,14.71c1.2,4.21,2.7,4.21,3.45-.15L108.6,8A9.78,9.78,0,0,1,117.9.34h9.61a9.31,9.31,0,0,1,9,7.81l13.36,89.33a6.68,6.68,0,0,1-6.75,7.81Z"/><path class="cls-1" d="M225.26,97.18a7.46,7.46,0,0,1-7.51,8h-8.11a7.89,7.89,0,0,1-7.81-8V74.81a8,8,0,0,0-8-8h-6.61a8,8,0,0,0-8,8V97.18a8,8,0,0,1-7.95,8h-8.11a7,7,0,0,1-7.06-8l6.31-65.76c.45-4.35.3-8-.75-8-3.46.15-2.41-3.6-2.41-8v-3A8.64,8.64,0,0,1,167.15,4L213.54.19a7.22,7.22,0,0,1,8,7.21v4.5c0,4.36.15,11.56.3,15.92Zm-45.95-58.7a7.14,7.14,0,0,0,8,7.2l6.61-.45a8.87,8.87,0,0,0,8-8.55V31.42a8,8,0,0,0-8-8h-6.61a8,8,0,0,0-8,8Z"/><path class="cls-1" d="M284.71,82.47a7.14,7.14,0,0,1,8,7.2v7.81a8,8,0,0,1-8,8H239.37a8,8,0,0,1-8-8V94.63a8.78,8.78,0,0,1,8-8.56l3.9-.3a9.44,9.44,0,0,0,8.41-8.56l2.25-46.39c.31-4.35-2.55-7.81-6.3-7.81s-6.91-3.6-6.91-8.1V12.2a9,9,0,0,1,8-8.71L279.76.19a7,7,0,0,1,8,7.06v7.66c0,4.5-3.16,8.1-6.91,8.1s-6.91,3.46-6.91,8V75.26a7.18,7.18,0,0,0,8,7.36Z"/><path class="cls-1" d="M359.94,97.33a8,8,0,0,1-8,8H305.89a7,7,0,0,1-7.06-8l7.36-68.46c.45-4.36-.3-8-1.51-8s-2.25-3.45-2.1-7.81l.3-5.1a8.49,8.49,0,0,1,8.26-8h4.05a8,8,0,0,1,8,8V75.86A7.27,7.27,0,0,0,331,83.07l21-2.25C361.59,79.92,359.94,97.33,359.94,97.33Z"/><path class="cls-1" d="M465.94,15.66a8,8,0,0,1-8,8h-3.3a8,8,0,0,0-8,8V97.48a7.88,7.88,0,0,1-7.81,8h-8.26a7.54,7.54,0,0,1-7.5-8l3.3-65.91a7.46,7.46,0,0,0-7.51-8h-7.35a8,8,0,0,1-8-7.95v-3a8.76,8.76,0,0,1,8-8.55L458,.34a7.14,7.14,0,0,1,8,7.21Z"/><path class="cls-1" d="M503,23.76a7.85,7.85,0,0,0-7.8,7.81v7.21a7.06,7.06,0,0,0,7.8,7l18.92-1.95c4.35-.3,7.21,2.85,6.61,7.06l-1.36,8.41a9.75,9.75,0,0,1-9.15,7.8H503a7.85,7.85,0,0,0-7.8,7.81v2a7.26,7.26,0,0,0,7.8,7.21l26.43-2.25a7.21,7.21,0,0,1,7.8,7.35v8.11a7.88,7.88,0,0,1-7.8,8h-50.3a7,7,0,0,1-7.06-7.81l6.31-65.91c.45-4.35-.15-7.81-1.2-7.81s-1.95-3.6-1.95-8V12.65a8.48,8.48,0,0,1,7.8-8.4L529.45.49a7,7,0,0,1,7.8,7.21v8.11a7.87,7.87,0,0,1-7.8,8Z"/><path class="cls-1" d="M609.17,105.29a9.29,9.29,0,0,1-8.85-7.81l-7.06-59.9c-.45-4.21-1.2-4.21-1.65,0l-3,29.12c-.45,4.36-3.6,7.81-7.05,7.81s-7.06-3.45-8-7.66l-5.71-27.17c-.9-4.21-1.5-4.21-1.35.15l2.11,57.5a7.55,7.55,0,0,1-7.51,8H550.47a7,7,0,0,1-7.06-8l7.51-67c.45-4.2,0-7.81-1-7.81s-1.65-3.45-1.35-7.8l.3-3.16a9.74,9.74,0,0,1,8.41-8.71l3.45-.45a9.64,9.64,0,0,1,9.91,6.61l3.75,14.71c1.2,4.21,2.7,4.21,3.45-.15L580.65,8A9.78,9.78,0,0,1,590,.34h9.6a9.31,9.31,0,0,1,9,7.81l13.37,89.33a6.69,6.69,0,0,1-6.76,7.81Z"/><path class="cls-1" d="M697.61,54.09a7.14,7.14,0,0,1-7.21,8H659.62a8,8,0,0,0-8,8V97.48a8,8,0,0,1-8,8.11H635.6a7.26,7.26,0,0,1-7.36-8l6.46-65.91c.45-4.35-.15-8-1.2-8-1.2,0-2-3.6-2-8V12.65a8.64,8.64,0,0,1,8-8.55L686.05.34c4.35-.45,8,1.8,8,5s.3,9.15.76,13.51Zm-31.38-14a8.78,8.78,0,0,0,8-8.56,8,8,0,0,0-8-7.81h-6.61a8,8,0,0,0-8,8v1.65a7.33,7.33,0,0,0,8,7.36Z"/><path class="cls-1" d="M765,97.33a8,8,0,0,1-7.95,8H711a7,7,0,0,1-7.05-8l7.35-68.46c.45-4.36-.3-8-1.5-8s-2.25-3.45-2.1-7.81L708,8a8.48,8.48,0,0,1,8.26-8h4a8,8,0,0,1,8,8V75.86a7.26,7.26,0,0,0,7.81,7.21l21-2.25C766.67,79.92,765,97.33,765,97.33Z"/><path class="cls-1" d="M840.39,97.18a7.44,7.44,0,0,1-7.5,8h-8.11a7.89,7.89,0,0,1-7.81-8V74.81a8,8,0,0,0-8-8h-6.61a8,8,0,0,0-8,8V97.18a8,8,0,0,1-8,8h-8.1a7,7,0,0,1-7.06-8l6.31-65.76c.45-4.35.3-8-.75-8-3.46.15-2.41-3.6-2.41-8v-3A8.64,8.64,0,0,1,782.29,4L828.68.19a7.22,7.22,0,0,1,8,7.21v4.5c0,4.36.15,11.56.3,15.92Zm-45.94-58.7a7.14,7.14,0,0,0,8,7.2l6.61-.45a8.87,8.87,0,0,0,8-8.55V31.42a8,8,0,0,0-8-8h-6.61a8,8,0,0,0-8,8Z"/><path class="cls-1" d="M908.86,15.66a8,8,0,0,1-8,8h-3.3a8,8,0,0,0-8,8V97.48a7.88,7.88,0,0,1-7.8,8h-8.26a7.54,7.54,0,0,1-7.51-8l3.3-65.91a7.46,7.46,0,0,0-7.5-8h-7.36a8,8,0,0,1-8-7.95v-3a8.77,8.77,0,0,1,8-8.55L900.9.34a7.14,7.14,0,0,1,8,7.21Z"/><path class="cls-1" d="M946,23.76a7.85,7.85,0,0,0-7.81,7.81v7.21a7.06,7.06,0,0,0,7.81,7l18.91-1.95c4.36-.3,7.21,2.85,6.61,7.06l-1.35,8.41a9.76,9.76,0,0,1-9.16,7.8H946A7.85,7.85,0,0,0,938.14,75v2A7.26,7.26,0,0,0,946,84.12l26.42-2.25a7.22,7.22,0,0,1,7.81,7.35v8.11a7.89,7.89,0,0,1-7.81,8h-50.3A7,7,0,0,1,915,97.48l6.3-65.91c.45-4.35-.15-7.81-1.2-7.81s-2-3.6-2-8V12.65A8.48,8.48,0,0,1,926,4.25L972.37.49a7,7,0,0,1,7.81,7.21v8.11a7.88,7.88,0,0,1-7.81,8Z"/><path class="cls-1" d="M1043.24,32.62a7.18,7.18,0,0,1,8,7.36v56.9a8,8,0,0,1-8,8.11H993.09a6.66,6.66,0,0,1-6.75-8l2.55-17.41a9.74,9.74,0,0,1,9.16-8h3c4.5,0,8,2.85,8,6.3,0,3.61,3.6,6.16,8,5.71l3.61-.15a10.2,10.2,0,0,0,8.71-8.71l1-11a7.07,7.07,0,0,0-7.21-8H996.85a7.14,7.14,0,0,1-7.21-8l1.65-16.67c.45-4.35-.15-8-1.2-8-1.2,0-1.65-3.6-1.2-7.95l1.35-10.81c.15,0,3.75-.3,8.11-.76L1042.19,0a7.14,7.14,0,0,1,8,7.21v8.11a8,8,0,0,1-8,8h-25.08c-4.5,0-8.1,2.71-8.1,6s3.6,5.7,8,5.4Z"/></g></g></svg>